<?xml version="1.0" encoding="UTF-8" standalone="no"?>
<!-- Created with Inkscape (http://www.inkscape.org/) -->

<svg
   xmlns:dc="http://purl.org/dc/elements/1.1/"
   xmlns:cc="http://creativecommons.org/ns#"
   xmlns:rdf="http://www.w3.org/1999/02/22-rdf-syntax-ns#"
   xmlns:svg="http://www.w3.org/2000/svg"
   xmlns="http://www.w3.org/2000/svg"
   xmlns:sodipodi="http://sodipodi.sourceforge.net/DTD/sodipodi-0.dtd"
   xmlns:inkscape="http://www.inkscape.org/namespaces/inkscape"
   width="512"
   height="512"
   viewBox="0 0 135.46666 135.46667"
   version="1.1"
   id="svg4845"
   inkscape:version="0.92.2 (5c3e80d, 2017-08-06)"
   sodipodi:docname="gmodstore.svg">
  <defs
     id="defs4839" />
  <sodipodi:namedview
     id="base"
     pagecolor="#b5b5b5"
     bordercolor="#666666"
     borderopacity="1.0"
     inkscape:pageopacity="0"
     inkscape:pageshadow="2"
     inkscape:zoom="0.7"
     inkscape:cx="411.18501"
     inkscape:cy="117.85544"
     inkscape:document-units="px"
     inkscape:current-layer="layer1"
     showgrid="false"
     units="px"
     borderlayer="true"
     inkscape:showpageshadow="false"
     inkscape:window-width="1920"
     inkscape:window-height="1017"
     inkscape:window-x="1912"
     inkscape:window-y="-8"
     inkscape:window-maximized="1" />
  <metadata
     id="metadata4842">
    <rdf:RDF>
      <cc:Work
         rdf:about="">
        <dc:format>image/svg+xml</dc:format>
        <dc:type
           rdf:resource="http://purl.org/dc/dcmitype/StillImage" />
        <dc:title></dc:title>
      </cc:Work>
    </rdf:RDF>
  </metadata>
  <g
     inkscape:label="Layer 1"
     inkscape:groupmode="layer"
     id="layer1"
     transform="translate(0,-161.53331)">
    <path
       style="opacity:1;fill:#ffffff;fill-opacity:1;fill-rule:evenodd;stroke:none;stroke-width:5.42414284;stroke-linecap:round;stroke-linejoin:round;stroke-miterlimit:4;stroke-dasharray:none;stroke-dashoffset:0;stroke-opacity:1;paint-order:normal"
       d="M 70.466797 0 C 31.428286 0 2.1807636e-016 31.428286 0 70.466797 L 0 441.5332 C 9.4739031e-015 480.57171 31.428286 512 70.466797 512 L 441.5332 512 C 480.57171 512 512 480.57171 512 441.5332 L 512 70.466797 C 512 31.428286 480.57171 2.1807636e-016 441.5332 0 L 70.466797 0 z M 242.95703 99.90625 C 267.42651 99.90625 287.61082 111.77302 303.50977 135.50781 L 303.50977 104.8457 L 352.51172 104.8457 L 352.51172 300.96484 C 352.51172 326.75757 350.58685 346.0338 346.73633 358.79297 C 342.8858 371.55214 337.48118 381.56849 330.52539 388.83984 C 323.5696 396.1112 314.25392 401.80406 302.57812 405.91992 C 291.02655 410.03578 276.37148 412.09375 258.60938 412.09375 C 225.07253 412.09375 201.28579 405.71425 187.25 392.95508 C 173.21421 380.33311 166.19531 364.28057 166.19531 344.79883 C 166.19531 342.87809 166.2586 340.54664 166.38281 337.80273 L 226.18945 345.82812 C 227.18314 353.51106 229.48188 358.79273 233.08398 361.67383 C 238.05241 365.78969 245.87649 367.84766 256.55859 367.84766 C 270.22175 367.84766 280.4692 365.58409 287.30078 361.05664 C 291.89657 358.03834 295.37437 353.16788 297.73438 346.44531 C 299.34911 341.64348 300.15625 332.7948 300.15625 319.89844 L 300.15625 288 C 284.50572 311.5976 264.75663 323.39648 240.9082 323.39648 C 214.32715 323.39648 193.27436 310.9808 177.74805 286.14844 C 165.57541 266.5295 159.48828 242.10933 159.48828 212.88672 C 159.48828 176.25556 167.43699 148.26642 183.33594 128.92188 C 199.3591 109.57733 219.23282 99.90625 242.95703 99.90625 z M 256.37305 144.15234 C 243.82778 144.15234 233.45571 149.56977 225.25781 160.4082 C 217.18413 171.10944 213.14648 187.5053 213.14648 209.59375 C 213.14648 232.77977 217.18413 249.79243 225.25781 260.63086 C 233.45571 271.3321 243.51719 276.68164 255.44141 276.68164 C 268.23509 276.68164 279.04043 271.19438 287.85938 260.21875 C 296.67832 249.10593 301.08789 232.71202 301.08789 211.03516 C 301.08789 188.39792 296.86624 171.59086 288.41992 160.61523 C 279.97361 149.63961 269.29094 144.15234 256.37305 144.15234 z "
       transform="matrix(0.26458333,0,0,0.26458333,0,161.53331)"
       id="rect5390" />
  </g>
</svg>
